<svg xmlns="http://www.w3.org/2000/svg" viewBox="0 0 200 50"><path d="M22.5,10c-8.3,0-15,6.7-15,15s6.7,15,15,15s15-6.7,15-15S30.8,10,22.5,10z M22.5,35c-5.5,0-10-4.5-10-10s4.5-10,10-10s10,4.5,10,10S28,35,22.5,35z" fill="#0033A0"/><path d="M37.5,10c-8.3,0-15,6.7-15,15s6.7,15,15,15s15-6.7,15-15S45.8,10,37.5,10z M37.5,35c-5.5,0-10-4.5-10-10s4.5-10,10-10s10,4.5,10,10S43,35,37.5,35z" fill="#FF0000"/><path d="M70,15l5,20h5l3.3-13.3L86.7,35h5l5-20h-5l-3.3,13.3L85,15h-5l-3.3,13.3L73.3,15H70z" fill="#0033A0"/><path d="M100,15l-5,20h5l1-4h8l1,4h5l-5-20H100z M102,27l2.5-10l2.5,10H102z" fill="#0033A0"/><path d="M125,15c-1.7,0-3.3,0.3-5,1v4c1.7-0.7,3.3-1,5-1c1.7,0,2.5,0.8,2.5,2.5v1.2c-0.8-0.5-2.1-0.7-3.8-0.7c-3.3,0-5,1.7-5,5v3c0,3.3,1.7,5,5,5c1.7,0,2.9-0.2,3.8-0.7c0.8,0.5,2.1,0.7,3.8,0.7h2.5v-13.5c0-3.3-1.7-5-5-5H125z M125,31c-0.8,0-1.2-0.4-1.2-1.2v-3c0-0.8,0.4-1.2,1.2-1.2c1.7,0,2.5,0.8,2.5,2.5v0.5C127.5,30.2,126.7,31,125,31z" fill="#0033A0"/><path d="M145,15c-1.7,0-3.3,0.3-5,1v4c1.7-0.7,3.3-1,5-1c1.7,0,2.5,0.8,2.5,2.5v1.2c-0.8-0.5-2.1-0.7-3.8-0.7c-3.3,0-5,1.7-5,5v3c0,3.3,1.7,5,5,5c1.7,0,2.9-0.2,3.8-0.7c0.8,0.5,2.1,0.7,3.8,0.7h2.5v-13.5c0-3.3-1.7-5-5-5H145z M145,31c-0.8,0-1.2-0.4-1.2-1.2v-3c0-0.8,0.4-1.2,1.2-1.2c1.7,0,2.5,0.8,2.5,2.5v0.5C147.5,30.2,146.7,31,145,31z" fill="#0033A0"/></svg>