<svg width="150" height="30" viewBox="0 0 150 30" fill="none" xmlns="http://www.w3.org/2000/svg">
  <circle cx="15" cy="15" r="15" fill="#0033A0"/>
  <circle cx="25" cy="15" r="15" fill="#FF0000" fill-opacity="0.7"/>
  <path d="M45 7L49 23H53L55 13L57 23H61L65 7H61L59 17L57 7H53L51 17L49 7H45Z" fill="#0033A0"/>
  <path d="M67 7V23H71V18H73C76.3 18 79 15.8 79 12.5C79 9.2 76.3 7 73 7H67ZM71 14V11H73C74.1 11 75 11.7 75 12.5C75 13.3 74.1 14 73 14H71Z" fill="#0033A0"/>
  <path d="M81 7V23H85V18H87C90.3 18 93 15.8 93 12.5C93 9.2 90.3 7 87 7H81ZM85 14V11H87C88.1 11 89 11.7 89 12.5C89 13.3 88.1 14 87 14H85Z" fill="#0033A0"/>
  <path d="M95 7V23H106V19H99V17H105V13H99V11H106V7H95Z" fill="#0033A0"/>
  <path d="M108 7V23H119V19H112V17H118V13H112V11H119V7H108Z" fill="#0033A0"/>
</svg>