<?xml version="1.0" encoding="UTF-8"?>
<svg xmlns="http://www.w3.org/2000/svg" width="1080" height="240" viewBox="0 0 1080 240">
  <!-- APE Text -->
  <g fill="#000000">
    <path d="M0,180 L60,20 L120,180 L80,180 L70,150 L30,150 L20,180 L0,180 Z M50,50 L35,130 L65,130 L50,50 Z"/>
    <path d="M130,20 L130,180 L150,180 L150,120 L200,120 L200,100 L150,100 L150,40 L210,40 L210,20 L130,20 Z"/>
    <path d="M220,20 L220,40 L250,40 L250,180 L270,180 L270,40 L300,40 L300,20 L220,20 Z"/>
  </g>
  
  <!-- Purple Monkey -->
  <g fill="#7E57C2">
    <path d="M390,30 C380,30 370,35 365,45 C360,55 360,70 365,80 L380,110 C385,120 380,130 370,130 C360,130 355,120 360,110 L375,80 C380,70 380,55 375,45 C370,35 360,30 350,30 C330,30 315,45 315,65 C315,75 320,85 330,90 L345,100 C355,105 360,115 360,125 C360,145 345,160 325,160 C305,160 290,145 290,125 C290,115 295,105 305,100 L320,90 C330,85 335,75 335,65 C335,45 320,30 300,30 C290,30 280,35 275,45 C270,55 270,70 275,80 L290,110 C295,120 290,130 280,130 C270,130 265,120 270,110 L285,80 C290,70 290,55 285,45 C280,35 270,30 260,30 C240,30 225,45 225,65 C225,75 230,85 240,90 L255,100 C265,105 270,115 270,125 C270,145 255,160 235,160 C215,160 200,145 200,125 C200,115 205,105 215,100 L230,90 C240,85 245,75 245,65 C245,45 230,30 210,30"/>
    <circle cx="350" cy="70" r="10"/>
  </g>
  
  <!-- GLOBAL Text -->
  <g fill="#000000">
    <path d="M500,50 C470,50 450,70 450,100 C450,130 470,150 500,150 C520,150 535,140 540,125 L520,115 C515,125 510,130 500,130 C485,130 475,120 475,100 C475,80 485,70 500,70 C510,70 515,75 520,85 L540,75 C535,60 520,50 500,50 Z"/>
    <path d="M550,50 L550,150 L575,150 L575,110 L600,110 L600,150 L625,150 L625,50 L600,50 L600,90 L575,90 L575,50 L550,50 Z"/>
    <path d="M650,50 C620,50 600,70 600,100 C600,130 620,150 650,150 C680,150 700,130 700,100 C700,70 680,50 650,50 Z M650,70 C665,70 675,80 675,100 C675,120 665,130 650,130 C635,130 625,120 625,100 C625,80 635,70 650,70 Z"/>
    <path d="M710,50 L710,150 L735,150 L735,70 L760,70 L760,50 L710,50 Z"/>
    <path d="M770,50 L770,150 L845,150 L845,130 L795,130 L795,110 L835,110 L835,90 L795,90 L795,70 L845,70 L845,50 L770,50 Z"/>
    <path d="M855,50 L855,150 L880,150 L880,110 L905,110 L905,150 L930,150 L930,50 L905,50 L905,90 L880,90 L880,50 L855,50 Z"/>
    <path d="M940,50 L940,150 L965,150 L965,70 L990,70 L990,50 L940,50 Z"/>
  </g>
  
  <!-- AUTOMATED LOGISTICS Text -->
  <g fill="#000000">
    <text x="540" y="220" font-family="Arial" font-weight="bold" font-size="36" text-anchor="middle">AUTOMATED LOGISTICS</text>
  </g>
</svg>